<?xml version="1.0" encoding="UTF-8" standalone="no"?>
<!-- Created with Inkscape (http://www.inkscape.org/) -->

<svg
   xmlns:dc="http://purl.org/dc/elements/1.1/"
   xmlns:cc="http://creativecommons.org/ns#"
   xmlns:rdf="http://www.w3.org/1999/02/22-rdf-syntax-ns#"
   xmlns:svg="http://www.w3.org/2000/svg"
   xmlns="http://www.w3.org/2000/svg"
   xmlns:xlink="http://www.w3.org/1999/xlink"
   xmlns:sodipodi="http://sodipodi.sourceforge.net/DTD/sodipodi-0.dtd"
   xmlns:inkscape="http://www.inkscape.org/namespaces/inkscape"
   width="48px"
   height="48px"
   id="svg2869"
   version="1.1"
   inkscape:version="0.47 r22583"
   sodipodi:docname="key1.svg">
  <defs
     id="defs2871">
    <inkscape:perspective
       sodipodi:type="inkscape:persp3d"
       inkscape:vp_x="0 : 24 : 1"
       inkscape:vp_y="0 : 1000 : 0"
       inkscape:vp_z="48 : 24 : 1"
       inkscape:persp3d-origin="24 : 16 : 1"
       id="perspective2877" />
    <inkscape:perspective
       id="perspective2887"
       inkscape:persp3d-origin="0.5 : 0.33333333 : 1"
       inkscape:vp_z="1 : 0.5 : 1"
       inkscape:vp_y="0 : 1000 : 0"
       inkscape:vp_x="0 : 0.5 : 1"
       sodipodi:type="inkscape:persp3d" />
    <linearGradient
       inkscape:collect="always"
       xlink:href="#linearGradient2849"
       id="linearGradient2855"
       x1="106.39782"
       y1="26.686861"
       x2="-7.5595942"
       y2="32.304497"
       gradientUnits="userSpaceOnUse"
       gradientTransform="matrix(0.38655074,0,0,0.38655074,-1.0852854,13.050554)" />
    <linearGradient
       inkscape:collect="always"
       id="linearGradient2849">
      <stop
         style="stop-color:#00ffff;stop-opacity:1;"
         offset="0"
         id="stop2851" />
      <stop
         style="stop-color:#00ffff;stop-opacity:0;"
         offset="1"
         id="stop2853" />
    </linearGradient>
    <linearGradient
       inkscape:collect="always"
       xlink:href="#linearGradient2849"
       id="linearGradient2895"
       x1="106.39782"
       y1="26.686861"
       x2="-7.5595942"
       y2="32.304497"
       gradientUnits="userSpaceOnUse"
       gradientTransform="translate(14.486088,17.618946)" />
    <filter
       id="filter2982"
       inkscape:label="Drop shadow"
       width="1.5"
       height="1.5"
       x="-.25"
       y="-.25">
      <feGaussianBlur
         id="feGaussianBlur2984"
         in="SourceAlpha"
         stdDeviation="2.000000"
         result="blur" />
      <feColorMatrix
         id="feColorMatrix2986"
         result="bluralpha"
         type="matrix"
         values="1 0 0 0 0 0 1 0 0 0 0 0 1 0 0 0 0 0 0.500000 0 " />
      <feOffset
         id="feOffset2988"
         in="bluralpha"
         dx="2.000000"
         dy="1.000000"
         result="offsetBlur" />
      <feMerge
         id="feMerge2990"
         result="fbSourceGraphic">
        <feMergeNode
           id="feMergeNode2992"
           in="offsetBlur" />
        <feMergeNode
           id="feMergeNode2994"
           in="SourceGraphic" />
      </feMerge>
      <feColorMatrix
         result="fbSourceGraphicAlpha"
         in="fbSourceGraphic"
         values="0 0 0 -1 0 0 0 0 -1 0 0 0 0 -1 0 0 0 0 1 0"
         id="feColorMatrix3008" />
      <feGaussianBlur
         id="feGaussianBlur3010"
         in="fbSourceGraphicAlpha"
         stdDeviation="2.000000"
         result="blur" />
      <feColorMatrix
         id="feColorMatrix3012"
         result="bluralpha"
         type="matrix"
         values="1 0 0 0 0 0 1 0 0 0 0 0 1 0 0 0 0 0 0.500000 0 " />
      <feOffset
         id="feOffset3014"
         in="bluralpha"
         dx="0.000000"
         dy="0.000000"
         result="offsetBlur" />
      <feMerge
         id="feMerge3016">
        <feMergeNode
           id="feMergeNode3018"
           in="offsetBlur" />
        <feMergeNode
           id="feMergeNode3020"
           in="fbSourceGraphic" />
      </feMerge>
    </filter>
    <linearGradient
       inkscape:collect="always"
       xlink:href="#linearGradient2849"
       id="linearGradient3022"
       gradientUnits="userSpaceOnUse"
       gradientTransform="matrix(0.38655074,0,0,0.38655074,-1.0852854,13.050554)"
       x1="106.39782"
       y1="26.686861"
       x2="-7.5595942"
       y2="32.304497" />
    <filter
       id="filter2844"
       inkscape:label="Drop shadow"
       width="1.5"
       height="1.5"
       x="-.25"
       y="-.25">
      <feGaussianBlur
         id="feGaussianBlur2846"
         in="SourceAlpha"
         stdDeviation="2.100000"
         result="blur" />
      <feColorMatrix
         id="feColorMatrix2848"
         result="bluralpha"
         type="matrix"
         values="1 0 0 0 0 0 1 0 0 0 0 0 1 0 0 0 0 0 0.521000 0 " />
      <feOffset
         id="feOffset2850"
         in="bluralpha"
         dx="1.000000"
         dy="1.000000"
         result="offsetBlur" />
      <feMerge
         id="feMerge2852"
         result="fbSourceGraphic">
        <feMergeNode
           id="feMergeNode2854"
           in="offsetBlur" />
        <feMergeNode
           id="feMergeNode2856"
           in="SourceGraphic" />
      </feMerge>
      <feColorMatrix
         result="fbSourceGraphicAlpha"
         in="fbSourceGraphic"
         values="0 0 0 -1 0 0 0 0 -1 0 0 0 0 -1 0 0 0 0 1 0"
         id="feColorMatrix2858" />
      <feGaussianBlur
         id="feGaussianBlur2860"
         in="fbSourceGraphicAlpha"
         stdDeviation="2.100000"
         result="blur" />
      <feColorMatrix
         id="feColorMatrix2862"
         result="bluralpha"
         type="matrix"
         values="1 0 0 0 0 0 1 0 0 0 0 0 1 0 0 0 0 0 0.521000 0 " />
      <feOffset
         id="feOffset2864"
         in="bluralpha"
         dx="1.000000"
         dy="1.000000"
         result="offsetBlur" />
      <feMerge
         id="feMerge2866">
        <feMergeNode
           id="feMergeNode2868"
           in="offsetBlur" />
        <feMergeNode
           id="feMergeNode2870"
           in="fbSourceGraphic" />
      </feMerge>
    </filter>
  </defs>
  <sodipodi:namedview
     id="base"
     pagecolor="#ffffff"
     bordercolor="#666666"
     borderopacity="1"
     inkscape:pageopacity="0.0"
     inkscape:pageshadow="2"
     inkscape:zoom="7"
     inkscape:cx="33.969932"
     inkscape:cy="19.337279"
     inkscape:current-layer="layer2"
     showgrid="true"
     inkscape:grid-bbox="true"
     inkscape:document-units="px"
     inkscape:window-width="1440"
     inkscape:window-height="825"
     inkscape:window-x="0"
     inkscape:window-y="24"
     inkscape:window-maximized="1"
     inkscape:snap-bbox="true"
     inkscape:snap-global="true" />
  <metadata
     id="metadata2874">
    <rdf:RDF>
      <cc:Work
         rdf:about="">
        <dc:format>image/svg+xml</dc:format>
        <dc:type
           rdf:resource="http://purl.org/dc/dcmitype/StillImage" />
        <dc:title></dc:title>
      </cc:Work>
    </rdf:RDF>
  </metadata>
  <g
     id="layer1"
     inkscape:label="Layer 1"
     inkscape:groupmode="layer"
     style="display:inline">
    <g
       id="g2918"
       style="filter:url(#filter2844)">
      <g
         transform="scale(0.98637461,1.0138136)"
         style="font-size:55.66330719px;font-style:normal;font-weight:normal;fill:#0000ff;fill-opacity:1;stroke:none;font-family:Bitstream Vera Sans"
         id="text2816">
        <path
           d="m 2.0081585,22.946269 c -0.5798317,2.2e-5 -0.9059836,0.253696 -0.9784566,0.761022 -0.0362443,0.579847 0.3623858,1.195911 1.1958914,1.848195 1.8481875,1.413345 3.5876641,1.884453 5.2184351,1.413327 4.3486796,-1.522024 12.5024766,-2.645436 24.4614146,-3.37024 3.841308,-0.217413 8.298717,0.01814 13.372239,0.706663 1.087124,0.144977 1.757547,0.01814 2.011272,-0.380511 0.36234,-0.579804 0.271742,-1.15963 -0.271793,-1.739478 -1.340898,-1.232106 -3.007896,-2.319279 -5.001,-3.261522 -0.65235,-0.253647 -1.558328,-0.199289 -2.717935,0.163076 -1.522086,0.434895 -3.334041,0.761047 -5.43587,0.978457 -9.458442,0.869763 -17.050533,1.630784 -22.776295,2.283065 -3.4789683,0.471131 -6.5049329,0.670446 -9.0779025,0.597946"
           style="font-variant:normal;font-weight:bold;font-stretch:normal;fill:#0000ff;font-family:AR PL UKai CN;-inkscape-font-specification:AR PL UKai CN Bold"
           id="path3897" />
      </g>
      <g
         transform="scale(0.99734576,1.0026613)"
         style="font-size:54.47754669px;font-style:normal;font-weight:normal;fill:url(#linearGradient2855);fill-opacity:1;stroke:none;font-family:Bitstream Vera Sans"
         id="text2845">
        <path
           d="m 2.3133346,23.206777 c -0.5674799,2.2e-5 -0.886684,0.248292 -0.9576131,0.744811 -0.035472,0.567494 0.354666,1.170435 1.170416,1.808824 1.8088167,1.383237 3.5112384,1.84431 5.10727,1.383219 C 11.88945,25.65403 19.869552,24.55455 31.573736,23.845186 c 3.759479,-0.212782 8.121934,0.01775 13.087379,0.69161 1.063965,0.141888 1.720107,0.01775 1.968427,-0.372405 0.354621,-0.567454 0.265953,-1.134928 -0.266004,-1.702424 -1.312333,-1.205859 -2.94382,-2.269873 -4.894467,-3.192044 -0.638453,-0.248244 -1.525131,-0.195043 -2.660036,0.159603 -1.489662,0.42563 -3.263018,0.744835 -5.320073,0.957613 -9.256955,0.851235 -16.687316,1.596045 -22.291106,2.23443 -3.4048578,0.461095 -6.3663621,0.656164 -8.8845214,0.585208"
           style="font-variant:normal;font-weight:bold;font-stretch:normal;font-family:AR PL UKai CN;-inkscape-font-specification:AR PL UKai CN Bold"
           id="path3900" />
      </g>
    </g>
  </g>
  <g
     style="display:inline"
     inkscape:groupmode="layer"
     inkscape:label="Layer 2"
     id="layer2">
    <g
       id="g2998"
       transform="translate(0.14285717,0.14285714)">
      <g
         transform="scale(0.98637461,1.0138136)"
         style="font-size:55.66330719px;font-style:normal;font-weight:normal;fill:#0000ff;fill-opacity:1;stroke:none;font-family:Bitstream Vera Sans"
         id="text3000">
        <path
           d="m 2.0081585,22.946269 c -0.5798317,2.2e-5 -0.9059836,0.253696 -0.9784566,0.761022 -0.0362443,0.579847 0.3623858,1.195911 1.1958914,1.848195 1.8481875,1.413345 3.5876641,1.884453 5.2184351,1.413327 4.3486796,-1.522024 12.5024766,-2.645436 24.4614146,-3.37024 3.841308,-0.217413 8.298717,0.01814 13.372239,0.706663 1.087124,0.144977 1.757547,0.01814 2.011272,-0.380511 0.36234,-0.579804 0.271742,-1.15963 -0.271793,-1.739478 -1.340898,-1.232106 -3.007896,-2.319279 -5.001,-3.261522 -0.65235,-0.253647 -1.558328,-0.199289 -2.717935,0.163076 -1.522086,0.434895 -3.334041,0.761047 -5.43587,0.978457 -9.458442,0.869763 -17.050533,1.630784 -22.776295,2.283065 -3.4789683,0.471131 -6.5049329,0.670446 -9.0779025,0.597946"
           style="font-variant:normal;font-weight:bold;font-stretch:normal;fill:#0000ff;font-family:AR PL UKai CN;-inkscape-font-specification:AR PL UKai CN Bold"
           id="path3903" />
      </g>
      <g
         transform="scale(0.99734576,1.0026613)"
         style="font-size:54.47754669px;font-style:normal;font-weight:normal;fill:url(#linearGradient3022);fill-opacity:1;stroke:none;font-family:Bitstream Vera Sans"
         id="text3004">
        <path
           d="m 2.3133346,23.206777 c -0.5674799,2.2e-5 -0.886684,0.248292 -0.9576131,0.744811 -0.035472,0.567494 0.354666,1.170435 1.170416,1.808824 1.8088167,1.383237 3.5112384,1.84431 5.10727,1.383219 C 11.88945,25.65403 19.869552,24.55455 31.573736,23.845186 c 3.759479,-0.212782 8.121934,0.01775 13.087379,0.69161 1.063965,0.141888 1.720107,0.01775 1.968427,-0.372405 0.354621,-0.567454 0.265953,-1.134928 -0.266004,-1.702424 -1.312333,-1.205859 -2.94382,-2.269873 -4.894467,-3.192044 -0.638453,-0.248244 -1.525131,-0.195043 -2.660036,0.159603 -1.489662,0.42563 -3.263018,0.744835 -5.320073,0.957613 -9.256955,0.851235 -16.687316,1.596045 -22.291106,2.23443 -3.4048578,0.461095 -6.3663621,0.656164 -8.8845214,0.585208"
           style="font-variant:normal;font-weight:bold;font-stretch:normal;font-family:AR PL UKai CN;-inkscape-font-specification:AR PL UKai CN Bold"
           id="path3906" />
      </g>
    </g>
  </g>
</svg>
