<?xml version="1.0" encoding="UTF-8" standalone="no"?>
<!-- Created with Inkscape (http://www.inkscape.org/) -->

<svg
   xmlns:dc="http://purl.org/dc/elements/1.1/"
   xmlns:cc="http://creativecommons.org/ns#"
   xmlns:rdf="http://www.w3.org/1999/02/22-rdf-syntax-ns#"
   xmlns:svg="http://www.w3.org/2000/svg"
   xmlns="http://www.w3.org/2000/svg"
   xmlns:xlink="http://www.w3.org/1999/xlink"
   xmlns:sodipodi="http://sodipodi.sourceforge.net/DTD/sodipodi-0.dtd"
   xmlns:inkscape="http://www.inkscape.org/namespaces/inkscape"
   width="48px"
   height="48px"
   id="svg2869"
   version="1.1"
   inkscape:version="0.47 r22583"
   sodipodi:docname="key5.svg">
  <defs
     id="defs2871">
    <linearGradient
       id="linearGradient2862">
      <stop
         id="stop2864"
         offset="0"
         style="stop-color:#00ffff;stop-opacity:0;" />
      <stop
         style="stop-color:#00ffff;stop-opacity:0.49803922;"
         offset="0.68316555"
         id="stop2868" />
      <stop
         id="stop2870"
         offset="1"
         style="stop-color:#00ffff;stop-opacity:0;" />
    </linearGradient>
    <linearGradient
       id="linearGradient2848">
      <stop
         style="stop-color:#00ffff;stop-opacity:1;"
         offset="0"
         id="stop2850" />
      <stop
         id="stop2858"
         offset="0.25"
         style="stop-color:#00ffff;stop-opacity:0.74901961;" />
      <stop
         id="stop2856"
         offset="0.5"
         style="stop-color:#00ffff;stop-opacity:0.49803922;" />
      <stop
         style="stop-color:#00ffff;stop-opacity:0;"
         offset="1"
         id="stop2852" />
    </linearGradient>
    <linearGradient
       inkscape:collect="always"
       id="linearGradient2826">
      <stop
         style="stop-color:#0000ff;stop-opacity:1;"
         offset="0"
         id="stop2828" />
      <stop
         style="stop-color:#0000ff;stop-opacity:0;"
         offset="1"
         id="stop2830" />
    </linearGradient>
    <inkscape:perspective
       sodipodi:type="inkscape:persp3d"
       inkscape:vp_x="0 : 24 : 1"
       inkscape:vp_y="0 : 1000 : 0"
       inkscape:vp_z="48 : 24 : 1"
       inkscape:persp3d-origin="24 : 16 : 1"
       id="perspective2877" />
    <inkscape:perspective
       id="perspective2887"
       inkscape:persp3d-origin="0.5 : 0.33333333 : 1"
       inkscape:vp_z="1 : 0.5 : 1"
       inkscape:vp_y="0 : 1000 : 0"
       inkscape:vp_x="0 : 0.5 : 1"
       sodipodi:type="inkscape:persp3d" />
    <linearGradient
       inkscape:collect="always"
       xlink:href="#linearGradient2849"
       id="linearGradient2855"
       x1="106.39782"
       y1="26.686861"
       x2="-7.5595942"
       y2="32.304497"
       gradientUnits="userSpaceOnUse"
       gradientTransform="matrix(0.38655074,0,0,0.38655074,-1.0852854,13.050554)" />
    <linearGradient
       inkscape:collect="always"
       id="linearGradient2849">
      <stop
         style="stop-color:#00ffff;stop-opacity:1;"
         offset="0"
         id="stop2851" />
      <stop
         style="stop-color:#00ffff;stop-opacity:0;"
         offset="1"
         id="stop2853" />
    </linearGradient>
    <linearGradient
       inkscape:collect="always"
       xlink:href="#linearGradient2849"
       id="linearGradient2895"
       x1="106.39782"
       y1="26.686861"
       x2="-7.5595942"
       y2="32.304497"
       gradientUnits="userSpaceOnUse"
       gradientTransform="translate(14.486088,17.618946)" />
    <linearGradient
       inkscape:collect="always"
       xlink:href="#linearGradient2826"
       id="linearGradient2832"
       x1="35.54327"
       y1="12.824506"
       x2="38.625324"
       y2="35.916603"
       gradientUnits="userSpaceOnUse"
       gradientTransform="translate(-0.68352473,-0.35828708)" />
    <clipPath
       clipPathUnits="userSpaceOnUse"
       id="clipPath2840">
      <rect
         style="opacity:0.62960032;fill:#0000ff;stroke:none"
         id="rect2842"
         width="54.226273"
         height="42.45702"
         x="-9.3873075e-07"
         y="0.10531468" />
    </clipPath>
    <linearGradient
       inkscape:collect="always"
       xlink:href="#linearGradient2848"
       id="linearGradient2854"
       x1="6.1847124"
       y1="29.216141"
       x2="10.366787"
       y2="40.054325"
       gradientUnits="userSpaceOnUse" />
    <linearGradient
       inkscape:collect="always"
       xlink:href="#linearGradient2862"
       id="linearGradient2860"
       gradientUnits="userSpaceOnUse"
       x1="9.3744926"
       y1="42.562336"
       x2="19.138683"
       y2="13.98894" />
    <linearGradient
       inkscape:collect="always"
       xlink:href="#linearGradient2826"
       id="linearGradient2926"
       gradientUnits="userSpaceOnUse"
       gradientTransform="translate(-0.68352473,-0.35828708)"
       x1="35.54327"
       y1="12.824506"
       x2="38.625324"
       y2="35.916603" />
    <linearGradient
       inkscape:collect="always"
       xlink:href="#linearGradient2862"
       id="linearGradient2928"
       gradientUnits="userSpaceOnUse"
       x1="9.3744926"
       y1="42.562336"
       x2="19.138683"
       y2="13.98894" />
    <filter
       id="filter2930"
       inkscape:label="Inner Shadow"
       width="1.5"
       height="1.5"
       x="-.25"
       y="-.25"
       inkscape:menu="Shadows and Glows"
       inkscape:menu-tooltip="Adds a colorizable drop shadow inside"
       color-interpolation-filters="sRGB">
      <feGaussianBlur
         id="feGaussianBlur2932"
         in="SourceAlpha"
         stdDeviation="2.100000"
         result="blur" />
      <feColorMatrix
         id="feColorMatrix2934"
         result="bluralpha"
         type="matrix"
         values="1 0 0 0 0 0 1 0 0 0 0 0 1 0 0 0 0 0 0.521000 0 " />
      <feOffset
         id="feOffset2936"
         in="bluralpha"
         dx="1.000000"
         dy="1.000000"
         result="offsetBlur" />
      <feMerge
         id="feMerge2938"
         result="fbSourceGraphic">
        <feMergeNode
           id="feMergeNode2940"
           in="offsetBlur" />
        <feMergeNode
           id="feMergeNode2942"
           in="SourceGraphic" />
      </feMerge>
      <feColorMatrix
         result="fbSourceGraphicAlpha"
         in="fbSourceGraphic"
         values="0 0 0 -1 0 0 0 0 -1 0 0 0 0 -1 0 0 0 0 1 0"
         id="feColorMatrix2944" />
      <feGaussianBlur
         id="feGaussianBlur2946"
         stdDeviation="4"
         result="result8"
         in="fbSourceGraphic" />
      <feOffset
         id="feOffset2948"
         dx="4"
         dy="4"
         result="result11" />
      <feComposite
         id="feComposite2950"
         in2="result11"
         result="result6"
         in="fbSourceGraphic"
         operator="in" />
      <feFlood
         id="feFlood2952"
         result="result10"
         in="result6"
         flood-opacity="1"
         flood-color="rgb(0,0,0)" />
      <feBlend
         id="feBlend2954"
         in2="result10"
         mode="normal"
         in="result6"
         result="result12" />
      <feComposite
         id="feComposite2956"
         in2="fbSourceGraphic"
         result="result2"
         operator="in" />
    </filter>
    <filter
       id="filter2958"
       inkscape:label="Drop shadow"
       width="1.5"
       height="1.5"
       x="-.25"
       y="-.25">
      <feGaussianBlur
         id="feGaussianBlur2960"
         in="SourceAlpha"
         stdDeviation="3.000000"
         result="blur" />
      <feColorMatrix
         id="feColorMatrix2962"
         result="bluralpha"
         type="matrix"
         values="1 0 0 0 0 0 1 0 0 0 0 0 1 0 0 0 0 0 0.526000 0 " />
      <feOffset
         id="feOffset2964"
         in="bluralpha"
         dx="1.000000"
         dy="2.000000"
         result="offsetBlur" />
      <feMerge
         id="feMerge2966"
         result="fbSourceGraphic">
        <feMergeNode
           id="feMergeNode2968"
           in="offsetBlur" />
        <feMergeNode
           id="feMergeNode2970"
           in="SourceGraphic" />
      </feMerge>
      <feColorMatrix
         result="fbSourceGraphicAlpha"
         in="fbSourceGraphic"
         values="0 0 0 -1 0 0 0 0 -1 0 0 0 0 -1 0 0 0 0 1 0"
         id="feColorMatrix2972" />
      <feGaussianBlur
         id="feGaussianBlur2974"
         in="fbSourceGraphicAlpha"
         stdDeviation="3.000000"
         result="blur" />
      <feColorMatrix
         id="feColorMatrix2976"
         result="bluralpha"
         type="matrix"
         values="1 0 0 0 0 0 1 0 0 0 0 0 1 0 0 0 0 0 0.526000 0 " />
      <feOffset
         id="feOffset2978"
         in="bluralpha"
         dx="1.000000"
         dy="2.000000"
         result="offsetBlur" />
      <feMerge
         id="feMerge2980">
        <feMergeNode
           id="feMergeNode2982"
           in="offsetBlur" />
        <feMergeNode
           id="feMergeNode2984"
           in="fbSourceGraphic" />
      </feMerge>
    </filter>
  </defs>
  <sodipodi:namedview
     id="base"
     pagecolor="#ffffff"
     bordercolor="#666666"
     borderopacity="1"
     inkscape:pageopacity="0.0"
     inkscape:pageshadow="2"
     inkscape:zoom="9.8994949"
     inkscape:cx="21.797559"
     inkscape:cy="26.079923"
     inkscape:current-layer="svg2869"
     showgrid="true"
     inkscape:grid-bbox="true"
     inkscape:document-units="px"
     inkscape:window-width="1440"
     inkscape:window-height="825"
     inkscape:window-x="0"
     inkscape:window-y="24"
     inkscape:window-maximized="1"
     inkscape:object-nodes="true"
     inkscape:snap-grids="false"
     inkscape:snap-to-guides="false" />
  <metadata
     id="metadata2874">
    <rdf:RDF>
      <cc:Work
         rdf:about="">
        <dc:format>image/svg+xml</dc:format>
        <dc:type
           rdf:resource="http://purl.org/dc/dcmitype/StillImage" />
        <dc:title></dc:title>
      </cc:Work>
    </rdf:RDF>
  </metadata>
  <g
     id="layer1"
     inkscape:label="Layer 1"
     inkscape:groupmode="layer"
     style="display:inline">
    <g
       id="g2908"
       style="filter:url(#filter2958)">
      <g
         transform="scale(0.88671529,1.1277577)"
         clip-path="url(#clipPath2840)"
         style="font-size:95.1083374px;font-style:normal;font-variant:normal;font-weight:normal;font-stretch:normal;fill:url(#linearGradient2832);fill-opacity:1;stroke:none;font-family:AR PL UKai CN;-inkscape-font-specification:AR PL UKai CN"
         id="text2822">
        <path
           d="M 7.4774117,8.9019769 C 6.4866808,8.8401203 5.8674865,9.087798 5.619827,9.6450108 5.3721311,10.264267 5.7436477,10.945381 6.7343779,11.688354 c 1.1764498,1.11461 2.2909995,1.795723 3.3436521,2.043343 2.105238,0.557333 4.705854,0.247736 7.801856,-0.928792 10.278595,-3.715107 15.727505,-5.1082941 16.346746,-4.1795658 0.247631,0.4334991 -4.7e-5,0.990774 -0.743034,1.6718258 C 22.523813,21.502643 16.269951,28.220901 14.721992,30.44996 9.5207328,36.580024 6.2390031,42.524289 4.8767931,48.282773 c -0.9288088,3.343672 -1.021688,6.161006 -0.2786377,8.45201 0.4334189,1.919518 1.5789283,3.684221 3.4365318,5.294117 5.3869698,5.015483 16.4705478,7.275542 33.2507668,6.780184 2.78632,-0.185755 5.727493,-0.464393 8.823527,-0.835913 5.820364,-0.74303 12.136145,-2.631572 18.947364,-5.665634 2.229018,-0.990701 2.972051,-2.817324 2.229102,-5.479874 -1.362312,-4.334346 -2.445902,-9.690376 -3.250774,-16.068108 -0.062,-1.300277 -0.371597,-2.290988 -0.928792,-2.972136 -0.433516,-0.61916 -0.866952,-0.03093 -1.300309,1.764706 -0.805031,5.820458 -1.857661,10.619214 -3.157894,14.396281 -0.805028,1.733762 -2.105336,3.06503 -3.900928,3.993807 -7.616161,3.591341 -20.216765,4.705891 -37.801849,3.343653 C 17.786977,60.85244 15.310199,60.109407 13.514562,59.056764 11.037759,57.694549 9.5826523,55.960805 9.149238,53.855527 7.8489083,48.592393 11.409275,41.223981 19.83035,31.750269 23.545483,27.601707 29.923185,22.059918 38.963473,15.124886 41.25444,13.20544 43.762177,11.719374 46.486691,10.666682 47.477343,10.233307 48.127497,9.7069923 48.437155,9.0877354 48.87053,8.0970872 48.499013,7.1063763 47.322604,6.1155998 45.031525,4.3819215 42.492829,3.0506538 39.706507,2.1217927 38.901502,1.7503458 38.00367,1.8432249 37.013009,2.4004304 31.564049,4.8153575 27.291609,6.3633432 24.195674,7.0443922 19.675519,7.9732483 14.102771,8.5924426 7.4774117,8.9019769"
           style=""
           id="path4657" />
      </g>
      <g
         transform="scale(0.88671529,1.1277577)"
         clip-path="url(#clipPath2840)"
         style="font-size:95.1083374px;font-style:normal;font-variant:normal;font-weight:normal;font-stretch:normal;fill:url(#linearGradient2860);fill-opacity:1;stroke:none;font-family:AR PL UKai CN;-inkscape-font-specification:AR PL UKai CN"
         id="text2844">
        <path
           d="M 7.4774117,8.9019769 C 6.4866808,8.8401203 5.8674865,9.087798 5.619827,9.6450108 5.3721311,10.264267 5.7436477,10.945381 6.7343779,11.688354 c 1.1764498,1.11461 2.2909995,1.795723 3.3436521,2.043343 2.105238,0.557333 4.705854,0.247736 7.801856,-0.928792 10.278595,-3.715107 15.727505,-5.1082941 16.346746,-4.1795658 0.247631,0.4334991 -4.7e-5,0.990774 -0.743034,1.6718258 C 22.523813,21.502643 16.269951,28.220901 14.721992,30.44996 9.5207328,36.580024 6.2390031,42.524289 4.8767931,48.282773 c -0.9288088,3.343672 -1.021688,6.161006 -0.2786377,8.45201 0.4334189,1.919518 1.5789283,3.684221 3.4365318,5.294117 5.3869698,5.015483 16.4705478,7.275542 33.2507668,6.780184 2.78632,-0.185755 5.727493,-0.464393 8.823527,-0.835913 5.820364,-0.74303 12.136145,-2.631572 18.947364,-5.665634 2.229018,-0.990701 2.972051,-2.817324 2.229102,-5.479874 -1.362312,-4.334346 -2.445902,-9.690376 -3.250774,-16.068108 -0.062,-1.300277 -0.371597,-2.290988 -0.928792,-2.972136 -0.433516,-0.61916 -0.866952,-0.03093 -1.300309,1.764706 -0.805031,5.820458 -1.857661,10.619214 -3.157894,14.396281 -0.805028,1.733762 -2.105336,3.06503 -3.900928,3.993807 -7.616161,3.591341 -20.216765,4.705891 -37.801849,3.343653 C 17.786977,60.85244 15.310199,60.109407 13.514562,59.056764 11.037759,57.694549 9.5826523,55.960805 9.149238,53.855527 7.8489083,48.592393 11.409275,41.223981 19.83035,31.750269 23.545483,27.601707 29.923185,22.059918 38.963473,15.124886 41.25444,13.20544 43.762177,11.719374 46.486691,10.666682 47.477343,10.233307 48.127497,9.7069923 48.437155,9.0877354 48.87053,8.0970872 48.499013,7.1063763 47.322604,6.1155998 45.031525,4.3819215 42.492829,3.0506538 39.706507,2.1217927 38.901502,1.7503458 38.00367,1.8432249 37.013009,2.4004304 31.564049,4.8153575 27.291609,6.3633432 24.195674,7.0443922 19.675519,7.9732483 14.102771,8.5924426 7.4774117,8.9019769"
           style=""
           id="path4660" />
      </g>
    </g>
  </g>
  <g
     inkscape:groupmode="layer"
     inkscape:label="Layer 2"
     id="layer2"
     style="display:inline">
    <g
       id="g2916"
       transform="translate(-0.02525381,-0.95964492)">
      <g
         transform="scale(0.88671529,1.1277577)"
         clip-path="url(#clipPath2840)"
         style="font-size:95.1083374px;font-style:normal;font-variant:normal;font-weight:normal;font-stretch:normal;fill:url(#linearGradient2926);fill-opacity:1;stroke:none;font-family:AR PL UKai CN;-inkscape-font-specification:AR PL UKai CN"
         id="text2918">
        <path
           d="M 7.4774117,8.9019769 C 6.4866808,8.8401203 5.8674865,9.087798 5.619827,9.6450108 5.3721311,10.264267 5.7436477,10.945381 6.7343779,11.688354 c 1.1764498,1.11461 2.2909995,1.795723 3.3436521,2.043343 2.105238,0.557333 4.705854,0.247736 7.801856,-0.928792 10.278595,-3.715107 15.727505,-5.1082941 16.346746,-4.1795658 0.247631,0.4334991 -4.7e-5,0.990774 -0.743034,1.6718258 C 22.523813,21.502643 16.269951,28.220901 14.721992,30.44996 9.5207328,36.580024 6.2390031,42.524289 4.8767931,48.282773 c -0.9288088,3.343672 -1.021688,6.161006 -0.2786377,8.45201 0.4334189,1.919518 1.5789283,3.684221 3.4365318,5.294117 5.3869698,5.015483 16.4705478,7.275542 33.2507668,6.780184 2.78632,-0.185755 5.727493,-0.464393 8.823527,-0.835913 5.820364,-0.74303 12.136145,-2.631572 18.947364,-5.665634 2.229018,-0.990701 2.972051,-2.817324 2.229102,-5.479874 -1.362312,-4.334346 -2.445902,-9.690376 -3.250774,-16.068108 -0.062,-1.300277 -0.371597,-2.290988 -0.928792,-2.972136 -0.433516,-0.61916 -0.866952,-0.03093 -1.300309,1.764706 -0.805031,5.820458 -1.857661,10.619214 -3.157894,14.396281 -0.805028,1.733762 -2.105336,3.06503 -3.900928,3.993807 -7.616161,3.591341 -20.216765,4.705891 -37.801849,3.343653 C 17.786977,60.85244 15.310199,60.109407 13.514562,59.056764 11.037759,57.694549 9.5826523,55.960805 9.149238,53.855527 7.8489083,48.592393 11.409275,41.223981 19.83035,31.750269 23.545483,27.601707 29.923185,22.059918 38.963473,15.124886 41.25444,13.20544 43.762177,11.719374 46.486691,10.666682 47.477343,10.233307 48.127497,9.7069923 48.437155,9.0877354 48.87053,8.0970872 48.499013,7.1063763 47.322604,6.1155998 45.031525,4.3819215 42.492829,3.0506538 39.706507,2.1217927 38.901502,1.7503458 38.00367,1.8432249 37.013009,2.4004304 31.564049,4.8153575 27.291609,6.3633432 24.195674,7.0443922 19.675519,7.9732483 14.102771,8.5924426 7.4774117,8.9019769"
           style=""
           id="path4663" />
      </g>
      <g
         transform="scale(0.88671529,1.1277577)"
         clip-path="url(#clipPath2840)"
         style="font-size:95.1083374px;font-style:normal;font-variant:normal;font-weight:normal;font-stretch:normal;fill:url(#linearGradient2928);fill-opacity:1;stroke:none;font-family:AR PL UKai CN;-inkscape-font-specification:AR PL UKai CN"
         id="text2922">
        <path
           d="M 7.4774117,8.9019769 C 6.4866808,8.8401203 5.8674865,9.087798 5.619827,9.6450108 5.3721311,10.264267 5.7436477,10.945381 6.7343779,11.688354 c 1.1764498,1.11461 2.2909995,1.795723 3.3436521,2.043343 2.105238,0.557333 4.705854,0.247736 7.801856,-0.928792 10.278595,-3.715107 15.727505,-5.1082941 16.346746,-4.1795658 0.247631,0.4334991 -4.7e-5,0.990774 -0.743034,1.6718258 C 22.523813,21.502643 16.269951,28.220901 14.721992,30.44996 9.5207328,36.580024 6.2390031,42.524289 4.8767931,48.282773 c -0.9288088,3.343672 -1.021688,6.161006 -0.2786377,8.45201 0.4334189,1.919518 1.5789283,3.684221 3.4365318,5.294117 5.3869698,5.015483 16.4705478,7.275542 33.2507668,6.780184 2.78632,-0.185755 5.727493,-0.464393 8.823527,-0.835913 5.820364,-0.74303 12.136145,-2.631572 18.947364,-5.665634 2.229018,-0.990701 2.972051,-2.817324 2.229102,-5.479874 -1.362312,-4.334346 -2.445902,-9.690376 -3.250774,-16.068108 -0.062,-1.300277 -0.371597,-2.290988 -0.928792,-2.972136 -0.433516,-0.61916 -0.866952,-0.03093 -1.300309,1.764706 -0.805031,5.820458 -1.857661,10.619214 -3.157894,14.396281 -0.805028,1.733762 -2.105336,3.06503 -3.900928,3.993807 -7.616161,3.591341 -20.216765,4.705891 -37.801849,3.343653 C 17.786977,60.85244 15.310199,60.109407 13.514562,59.056764 11.037759,57.694549 9.5826523,55.960805 9.149238,53.855527 7.8489083,48.592393 11.409275,41.223981 19.83035,31.750269 23.545483,27.601707 29.923185,22.059918 38.963473,15.124886 41.25444,13.20544 43.762177,11.719374 46.486691,10.666682 47.477343,10.233307 48.127497,9.7069923 48.437155,9.0877354 48.87053,8.0970872 48.499013,7.1063763 47.322604,6.1155998 45.031525,4.3819215 42.492829,3.0506538 39.706507,2.1217927 38.901502,1.7503458 38.00367,1.8432249 37.013009,2.4004304 31.564049,4.8153575 27.291609,6.3633432 24.195674,7.0443922 19.675519,7.9732483 14.102771,8.5924426 7.4774117,8.9019769"
           style=""
           id="path4666" />
      </g>
    </g>
  </g>
</svg>
